#!OML:ASF G:\JayActor3\Patient Classification 1\Patient 1\Session 2\male.ASF
:FULLY-SPECIFIED
:DEGREES
1456
root 18.9683 16.3717 -5.93391 1360.22 -266.207 -1153.62
lowerback 1.0094 1.10883 -3.88524
upperback 2.37481 1.62993 -3.39136
thorax 1.86939 0.818721 -1.29669
lowerneck -9.10089 2.69611 3.12149
upperneck 35.7385 4.22036 2.45599
head 13.6065 3.17466 1.15783
rclavicle 1.82261e-014 -2.14687e-014
rhumerus -44.0194 48.6568 -108.594
rradius 76.2626
rwrist 1.213
rhand -37.2568 11.0668
rfingers 7.12502
rthumb -10.3224 -18.6599
lclavicle 1.82261e-014 -2.14687e-014
lhumerus -35.4639 -59.1593 100.217
lradius 98.3149
lwrist 6.0969
lhand -12.7317 7.44161
lfingers 7.12502
lthumb 13.3518 36.9938
rfemur -29.8692 4.60241 19.0335
rtibia 83.1988
rfoot -6.74047 -14.8496
rtoes 19.3298
lfemur -9.08127 5.96032 -27.543
ltibia 32.1905
lfoot -13.781 2.72656
ltoes -5.14262
1457
root 19.2751 16.3737 -5.9612 1350.87 -265.973 -1163.07
lowerback 0.940105 1.0489 -4.01425
upperback 2.39411 1.56166 -3.51297
thorax 1.92941 0.784338 -1.34876
lowerneck -9.03757 2.75222 3.1256
upperneck 35.7646 4.31506 2.40375
head 13.6061 3.20598 1.14759
rclavicle 9.46712e-015 5.56597e-015
rhumerus -44.2171 48.7755 -108.733
rradius 76.2774
rwrist 1.14266
rhand -37.2354 11.0173
rfingers 7.12502
rthumb -10.3017 -18.7104
lclavicle 9.46712e-015 5.56597e-015
lhumerus -35.5637 -59.1736 100.577
lradius 98.3034
lwrist 6.39438
lhand -12.9101 7.44686
lfingers 7.12502
lthumb 13.1799 37.0103
rfemur -31.7239 5.77941 18.5225
rtibia 81.2945
rfoot -8.72174 -14.8445
rtoes 17.9885
lfemur -7.69646 5.97596 -27.9467
ltibia 31.7582
lfoot -14.4339 3.39546
ltoes -5.59949
1458
root 19.5837 16.3829 -5.98429 1343.6 -265.68 -1170.41
lowerback 0.936408 0.968531 -4.17165
upperback 2.37942 1.45882 -3.61198
thorax 1.91644 0.732621 -1.36376
lowerneck -8.99242 2.79646 3.12226
upperneck 35.8578 4.39139 2.37693
head 13.6389 3.23419 1.14952
rclavicle 4.64038e-015 -1.74931e-014
rhumerus -44.4206 48.844 -108.908
rradius 76.2398
rwrist 1.0152
rhand -37.186 10.9955
rfingers 7.12502
rthumb -10.2541 -18.7346
lclavicle 4.64038e-015 -1.74931e-014
lhumerus -35.7599 -59.1861 101.003
lradius 98.2808
lwrist 6.55645
lhand -13.0087 7.41814
lfingers 7.12502
lthumb 13.0848 36.9877
rfemur -33.2328 6.85656 18.0323
rtibia 78.7222
rfoot -10.627 -14.8427
rtoes 16.7711
lfemur -6.15481 6.22443 -28.2499
ltibia 31.0628
lfoot -14.9043 3.71889
ltoes -5.98234
1459
root 19.8951 16.4013 -6.00266 1338.39 -265.372 -1175.74
lowerback 0.899057 0.859857 -4.37295
upperback 2.32167 1.31609 -3.67963
thorax 1.87674 0.659802 -1.32195
lowerneck -8.96928 2.82993 3.09812
upperneck 35.9899 4.45602 2.35847
head 13.6933 3.2568 1.15904
rclavicle 2.10588e-015 -2.14687e-014
rhumerus -44.6352 48.8837 -109.098
rradius 76.1797
rwrist 0.879699
rhand -37.1263 11.0009
rfingers 7.12502
rthumb -10.1965 -18.732
lclavicle 2.10588e-015 -2.14687e-014
lhumerus -36.0288 -59.1883 101.483
lradius 98.2399
lwrist 6.59259
lhand -13.0528 7.37358
lfingers 7.12502
lthumb 13.0423 36.9458
rfemur -34.4488 7.81807 17.5572
rtibia 75.4925
rfoot -12.3802 -14.8164
rtoes 15.6407
lfemur -4.5528 6.59112 -28.4685
ltibia 30.1295
lfoot -15.1817 3.79987
ltoes -6.34443
1460
root 20.21 16.4282 -6.01679 1334.69 -265.074 -1179.66
lowerback 0.753583 0.724818 -4.61659
upperback 2.2158 1.14095 -3.71081
thorax 1.84762 0.569122 -1.21793
lowerneck -8.9561 2.85439 3.04518
upperneck 36.1232 4.51837 2.32406
head 13.7499 3.27236 1.16725
rclavicle 8.13775e-015 4.21423e-014
rhumerus -44.8703 48.9266 -109.297
rradius 76.1244
rwrist 0.746019
rhand -37.0604 11.0316
rfingers 7.12502
rthumb -10.1329 -18.7044
lclavicle 8.13775e-015 4.21423e-014
lhumerus -36.3506 -59.165 102.004
lradius 98.183
lwrist 6.55182
lhand -13.0548 7.33216
lfingers 7.12502
lthumb 13.0403 36.9045
rfemur -35.4319 8.67974 17.0828
rtibia 71.6487
rfoot -13.9474 -14.7293
rtoes 14.6823
lfemur -2.9775 7.04178 -28.6248
ltibia 29.0152
lfoot -15.2591 3.73649
ltoes -6.82829
1461
root 20.5289 16.46 -6.0276 1332.1 -264.822 -1182.59
lowerback 0.453078 0.565912 -4.86589
upperback 2.06815 0.941266 -3.70211
thorax 1.86336 0.464657 -1.06872
lowerneck -8.95365 2.86999 2.96389
upperneck 36.2293 4.57852 2.26407
head 13.7964 3.27857 1.16903
rclavicle -4.62174e-015 -7.15625e-015
rhumerus -45.1223 48.9814 -109.492
rradius 76.0924
rwrist 0.64958
rhand -37.0069 11.0686
rfingers 7.12502
rthumb -10.0813 -18.6699
lclavicle -4.62174e-015 -7.15625e-015
lhumerus -36.7015 -59.1244 102.543
lradius 98.1076
lwrist 6.48374
lhand -13.0394 7.30726
lfingers 7.12502
lthumb 13.0552 36.8787
rfemur -36.2236 9.44334 16.6221
rtibia 67.2584
rfoot -15.2817 -14.5455
rtoes 13.6574
lfemur -1.50515 7.53071 -28.7248
ltibia 27.8181
lfoot -15.1668 3.61906
ltoes -7.38944
1462
root 20.8521 16.4927 -6.03645 1330.49 -264.633 -1184.64
lowerback 0.0117001 0.383242 -5.08431
upperback 1.88995 0.718307 -3.66257
thorax 1.92892 0.34787 -0.905536
lowerneck -8.95149 2.87482 2.86532
upperneck 36.2886 4.63171 2.17342
head 13.8221 3.27387 1.15864
rclavicle -7.98866e-015 1.43125e-014
rhumerus -45.3987 49.0379 -109.69
rradius 76.099
rwrist 0.588711
rhand -36.9741 11.0916
rfingers 7.12502
rthumb -10.0497 -18.6485
lclavicle -7.98866e-015 1.43125e-014
lhumerus -37.0804 -59.0725 103.091
lradius 98.0103
lwrist 6.41564
lhand -13.0057 7.29475
lfingers 7.12502
lthumb 13.0877 36.8641
rfemur -36.8167 10.077 16.187
rtibia 62.4172
rfoot -16.4365 -14.1941
rtoes 12.5197
lfemur -0.158441 7.9615 -28.7963
ltibia 26.6459
lfoot -14.9717 3.56043
ltoes -7.9887
1463
root 21.1793 16.523 -6.04422 1329.97 -264.514 -1185.66
lowerback -0.545598 0.172007 -5.25964
upperback 1.69422 0.465673 -3.6012
thorax 2.04442 0.216018 -0.746373
lowerneck -8.9599 2.86895 2.76043
upperneck 36.3039 4.67476 2.05318
head 13.8307 3.25851 1.13461
rclavicle -2.21148e-015 -2.38542e-014
rhumerus -45.6963 49.0886 -109.886
rradius 76.1562
rwrist 0.541176
rhand -36.9474 11.0999
rfingers 7.12502
rthumb -10.0239 -18.6414
lclavicle -2.21148e-015 -2.38542e-014
lhumerus -37.456 -59.0152 103.619
lradius 97.8775
lwrist 6.3652
lhand -12.9623 7.29041
lfingers 7.12502
lthumb 13.1295 36.8571
rfemur -37.2156 10.5323 15.7848
rtibia 57.246
rfoot -17.4479 -13.633
rtoes 11.0979
lfemur 1.0428 8.28822 -28.8594
ltibia 25.598
lfoot -14.719 3.60805
ltoes -8.68803
1464
root 21.5092 16.5491 -6.05177 1330.51 -264.463 -1185.66
lowerback -1.16678 -0.0627065 -5.39297
upperback 1.49457 0.187314 -3.52331
thorax 2.19467 0.0714721 -0.597877
lowerneck -8.96893 2.85084 2.66187
upperneck 36.2658 4.7015 1.90598
head 13.8163 3.23199 1.09437
rclavicle -9.03228e-015 -1.27222e-014
rhumerus -46.0094 49.1205 -110.071
rradius 76.268
rwrist 0.482406
rhand -36.9096 11.1144
rfingers 7.12502
rthumb -9.98744 -18.6287
lclavicle -9.03228e-015 -1.27222e-014
lhumerus -37.8095 -58.9542 104.12
lradius 97.6934
lwrist 6.34356
lhand -12.9017 7.28487
lfingers 7.12502
lthumb 13.188 36.8478
rfemur -37.4123 10.78 15.4314
rtibia 51.8926
rfoot -18.3646 -12.8505
rtoes 9.21844
lfemur 2.1276 8.51292 -28.9175
ltibia 24.7171
lfoot -14.4473 3.73595
ltoes -9.29991
1465
root 21.8411 16.5697 -6.05978 1331.93 -264.459 -1184.74
lowerback -1.80126 -0.309603 -5.49831
upperback 1.30749 -0.104627 -3.43099
thorax 2.36781 -0.079722 -0.4552
lowerneck -8.97551 2.81866 2.55978
upperneck 36.1789 4.7059 1.75051
head 13.7792 3.19324 1.04653
rclavicle -1.50331e-015 1.66979e-014
rhumerus -46.336 49.1411 -110.233
rradius 76.4258
rwrist 0.397458
rhand -36.8633 11.1249
rfingers 7.12502
rthumb -9.94279 -18.6203
lclavicle -1.50331e-015 1.66979e-014
lhumerus -38.1163 -58.8764 104.589
lradius 97.4398
lwrist 6.33461
lhand -12.8193 7.28554
lfingers 7.12502
lthumb 13.2674 36.8433
rfemur -37.3985 10.8108 15.1392
rtibia 46.5395
rfoot -19.2622 -11.813
rtoes 7.02395
lfemur 3.15534 8.65768 -28.9695
ltibia 24.0033
lfoot -14.1801 3.90412
ltoes -9.73485
1466
root 22.1743 16.5861 -6.06863 1334 -264.467 -1183.11
lowerback -2.3967 -0.554011 -5.59639
upperback 1.14675 -0.393461 -3.33135
thorax 2.54806 -0.229264 -0.313583
lowerneck -8.97318 2.7726 2.44339
upperneck 36.0471 4.68377 1.6102
head 13.7189 3.14246 1.00187
rclavicle 1.86361e-015 2.70347e-014
rhumerus -46.6725 49.1572 -110.378
rradius 76.6077
rwrist 0.290411
rhand -36.8178 11.113
rfingers 7.12502
rthumb -9.89883 -18.6343
lclavicle 1.86361e-015 2.70347e-014
lhumerus -38.3618 -58.7712 105.018
lradius 97.1032
lwrist 6.33217
lhand -12.7043 7.29326
lfingers 7.12502
lthumb 13.3782 36.8437
rfemur -37.1832 10.6244 14.914
rtibia 41.3926
rfoot -20.1342 -10.5468
rtoes 4.70394
lfemur 4.20175 8.75422 -29.0161
ltibia 23.4175
lfoot -13.8942 4.07634
ltoes -10.0803
1467
root 22.5083 16.5991 -6.07807 1336.55 -264.465 -1180.92
lowerback -2.94809 -0.785314 -5.70602
upperback 1.01126 -0.664891 -3.22898
thorax 2.73107 -0.370255 -0.166069
lowerneck -8.96552 2.71182 2.30307
upperneck 35.887 4.62999 1.50834
head 13.6429 3.07976 0.971491
rclavicle 7.33018e-016 5.40694e-014
rhumerus -47.0191 49.1648 -110.51
rradius 76.7883
rwrist 0.177793
rhand -36.7925 11.067
rfingers 7.12502
rthumb -9.87447 -18.6814
lclavicle 7.33018e-016 5.40694e-014
lhumerus -38.5632 -58.6372 105.432
lradius 96.6743
lwrist 6.34046
lhand -12.5864 7.32079
lfingers 7.12502
lthumb 13.4919 36.8638
rfemur -36.8233 10.2252 14.7629
rtibia 36.6697
rfoot -20.9071 -9.15341
rtoes 2.43711
lfemur 5.28356 8.82322 -29.0535
ltibia 22.9288
lfoot -13.5368 4.21902
ltoes -10.4986
1468
root 22.8427 16.6098 -6.08727 1339.25 -264.427 -1178.49
lowerback -3.44016 -0.990099 -5.84449
upperback 0.898881 -0.901371 -3.13062
thorax 2.90549 -0.493992 -0.00782484
lowerneck -8.95873 2.63795 2.13036
upperneck 35.722 4.54566 1.4626
head 13.5623 3.00741 0.965046
rclavicle -3.30231e-014 -6.63941e-014
rhumerus -47.3726 49.1576 -110.64
rradius 76.9419
rwrist 0.0515713
rhand -36.7666 11
rfingers 7.12502
rthumb -9.84946 -18.7496
lclavicle -3.30231e-014 -6.63941e-014
lhumerus -38.7407 -58.4656 105.838
lradius 96.1504
lwrist 6.35469
lhand -12.4687 7.36704
lfingers 7.12502
lthumb 13.6053 36.9024
rfemur -36.3738 9.66276 14.6827
rtibia 32.5778
rfoot -21.5157 -7.78226
rtoes 0.531893
lfemur 6.39799 8.89396 -29.0782
ltibia 22.5466
lfoot -13.0591 4.31152
ltoes -11.1448
